<?xml version="1.0" encoding="utf-8"?>
<!-- Generator: Adobe Illustrator 21.0.0, SVG Export Plug-In . SVG Version: 6.00 Build 0)  -->
<svg version="1.1" id="Слой_1" xmlns="http://www.w3.org/2000/svg" xmlns:xlink="http://www.w3.org/1999/xlink" x="0px" y="0px"
	 viewBox="0 0 1552 88.6" style="enable-background:new 0 0 1552 88.6;" xml:space="preserve">
<style type="text/css">
	.st0{clip-path:url(#SVGID_2_);}
	.st1{fill:#575757;}
	.st2{fill:#2C2C2C;}
</style>
<g>
	<defs>
		
			<rect id="SVGID_1_" x="-0.3" y="0" transform="matrix(-1 -8.979363e-11 8.979363e-11 -1 1551.2915 88.5603)" width="1551.8" height="88.6"/>
	</defs>
	<clipPath id="SVGID_2_">
		<use xlink:href="#SVGID_1_"  style="overflow:visible;"/>
	</clipPath>
	<g class="st0">
		<path class="st1" d="M517.9-383.5V92.6h519l0-476.1H811.2c-6.9,12.5-20.3,21-35.6,21c-15.3,0-28.7-8.5-35.6-21L517.9-383.5
			L517.9-383.5z M545.9-358.2h16.6c3.4,0,6.1,2.7,6.1,6.1v28.9c0,3.4-2.7,6.1-6.1,6.1h-16.6c-3.4,0-6.1-2.7-6.1-6.1V-352
			C539.7-355.4,542.5-358.2,545.9-358.2z M611-358.2h16.6c3.4,0,6.1,2.7,6.1,6.1v28.9c0,3.4-2.7,6.1-6.1,6.1H611
			c-3.4,0-6.1-2.7-6.1-6.1V-352C604.9-355.4,607.6-358.2,611-358.2z M676.1-358.2h16.6c3.4,0,6.1,2.7,6.1,6.1v28.9
			c0,3.4-2.7,6.1-6.1,6.1h-16.6c-3.4,0-6.1-2.7-6.1-6.1V-352C670-355.4,672.7-358.2,676.1-358.2z M741.3-358.2h16.6
			c3.4,0,6.1,2.7,6.1,6.1v28.9c0,3.4-2.7,6.1-6.1,6.1h-16.6c-3.4,0-6.1-2.7-6.1-6.1V-352C735.2-355.4,737.9-358.2,741.3-358.2z
			 M806.4-358.2h16.6c3.4,0,6.1,2.7,6.1,6.1v28.9c0,3.4-2.7,6.1-6.1,6.1h-16.6c-3.4,0-6.1-2.7-6.1-6.1V-352
			C800.3-355.4,803-358.2,806.4-358.2z M871.6-358.2h16.6c3.4,0,6.1,2.7,6.1,6.1v28.9c0,3.4-2.7,6.1-6.1,6.1h-16.6
			c-3.4,0-6.1-2.7-6.1-6.1V-352C865.5-355.4,868.2-358.2,871.6-358.2z M936.7-358.2h16.6c3.4,0,6.1,2.7,6.1,6.1v28.9
			c0,3.4-2.7,6.1-6.1,6.1h-16.6c-3.4,0-6.1-2.7-6.1-6.1V-352C930.6-355.4,933.3-358.2,936.7-358.2z M1001.8-358.2h16.6
			c3.4,0,6.1,2.7,6.1,6.1v28.9c0,3.4-2.7,6.1-6.1,6.1h-16.6c-3.4,0-6.1-2.7-6.1-6.1V-352C995.7-355.4,998.5-358.2,1001.8-358.2z
			 M541.5-309.2h471.7c6.8,0,12.3,5.5,12.3,12.3V3.3c0,6.8-5.5,12.3-12.3,12.3H541.5c-6.8,0-12.3-5.5-12.3-12.3v-300.2
			C529.2-303.7,534.7-309.2,541.5-309.2L541.5-309.2z M545,25.2h16.6c3.4,0,6.1,2.7,6.1,6.1v28.9c0,3.4-2.7,6.1-6.1,6.1H545
			c-3.4,0-6.1-2.7-6.1-6.1V31.3C538.9,27.9,541.6,25.2,545,25.2z M610.1,25.2h16.6c3.4,0,6.1,2.7,6.1,6.1l0,28.9
			c0,3.4-2.7,6.1-6.1,6.1h-16.6c-3.4,0-6.1-2.7-6.1-6.1V31.3C604,27.9,606.7,25.2,610.1,25.2z M675.3,25.2h16.6
			c3.4,0,6.1,2.7,6.1,6.1v28.9c0,3.4-2.7,6.1-6.1,6.1h-16.6c-3.4,0-6.1-2.7-6.1-6.1l0-28.9C669.1,27.9,671.9,25.2,675.3,25.2z
			 M740.4,25.2H757c3.4,0,6.1,2.7,6.1,6.1v28.9c0,3.4-2.7,6.1-6.1,6.1h-16.6c-3.4,0-6.1-2.7-6.1-6.1l0-28.9
			C734.3,27.9,737,25.2,740.4,25.2z M805.6,25.2h16.6c3.4,0,6.1,2.7,6.1,6.1v28.9c0,3.4-2.7,6.1-6.1,6.1h-16.6
			c-3.4,0-6.1-2.7-6.1-6.1l0-28.9C799.4,27.9,802.2,25.2,805.6,25.2z M870.7,25.2h16.6c3.4,0,6.1,2.7,6.1,6.1v28.9
			c0,3.4-2.7,6.1-6.1,6.1h-16.6c-3.4,0-6.1-2.7-6.1-6.1l0-28.9C864.6,27.9,867.3,25.2,870.7,25.2z M935.8,25.2h16.6
			c3.4,0,6.1,2.7,6.1,6.1l0,28.9c0,3.4-2.7,6.1-6.1,6.1h-16.6c-3.4,0-6.1-2.7-6.1-6.1V31.3C929.7,27.9,932.4,25.2,935.8,25.2z
			 M1001,25.2h16.6c3.4,0,6.1,2.7,6.1,6.1v28.9c0,3.4-2.7,6.1-6.1,6.1H1001c-3.4,0-6.1-2.7-6.1-6.1V31.3
			C994.8,27.9,997.6,25.2,1001,25.2z"/>
		<path class="st2" d="M517.9-349.4v19.3h21.9v-19.3H517.9z M568.6-349.4v19.3h36.3v-19.3C604.9-349.4,568.6-349.4,568.6-349.4z
			 M633.8-349.4v19.3H670v-19.3H633.8z M698.9-349.4v19.3h36.3v-19.3H698.9z M764-349.4v19.3h36.3v-19.3H764z M829.2-349.4v19.3
			h36.3v-19.3H829.2z M894.3-349.4v19.3h36.2v-19.3H894.3z M959.5-349.4v19.3h36.3v-19.3H959.5z M1024.6-349.4v19.3h12.3v-19.3
			H1024.6z"/>
		<path class="st2" d="M517.9,33.8v19.8h21V33.8H517.9z M567.7,33.8v19.8H604V33.8C604,33.8,567.7,33.8,567.7,33.8z M632.9,33.8
			l0,19.8h36.2V33.8H632.9z M698,33.8v19.8h36.3l0-19.8H698z M763.2,33.8v19.8h36.3l0-19.8H763.2z M828.3,33.8v19.8h36.3l0-19.8
			H828.3z M893.5,33.8v19.8h36.2V33.8H893.5z M958.6,33.8l0,19.8h36.3V33.8H958.6z M1023.7,33.8v19.8h13.1l0-19.8H1023.7z"/>
		<path class="st2" d="M522.1,70.3v22.3h12.4V70.3H522.1z M540.1,70.3v22.3h8V70.3H540.1z M660.2,70.3v22.3h12.4V70.3H660.2z
			 M678.1,70.3v22.3h8V70.3H678.1z M690.7,70.3v22.3h8V70.3H690.7z M857,70.3v22.3h8V70.3H857z M869.3,70.3v22.3h8V70.3H869.3z
			 M881.1,70.3v22.3h12.4V70.3H881.1z M911.3,70.3v22.3h8V70.3H911.3z M923.5,70.3v22.3h8V70.3H923.5z M935.8,70.3v22.3h8V70.3
			H935.8z M1004.1,70.3v22.3h8V70.3H1004.1z M1017.2,70.3v22.3h12.4V70.3H1017.2z"/>
		<path d="M585.3,63c1.7-0.9,4.1-1,5.6,0.4c1.3,1.3,1.5,3.3,1,5c-0.4,1.5-1.7,2.7-3.2,2.8c-1.1,0.2-2.1,0-3.1-0.5
			c-0.5-0.5-0.4-1.7-0.1-2c1,0.7,2.4,1,3.5,0.2c0.9-0.7,1-2,0.8-3c-0.1-0.9-0.8-1.7-1.7-1.9c-0.7-0.2-1.5,0-2.2,0.4
			c-0.7,0.7-0.7-0.3-0.6-0.8C585.3,63.5,585.3,63.2,585.3,63L585.3,63z M575.9,63c1.7-0.9,4.1-1,5.6,0.4c1.3,1.3,1.5,3.3,1,5
			c-0.4,1.5-1.7,2.7-3.2,2.8c-1.1,0.2-2.1,0-3.1-0.5c-0.5-0.5-0.4-1.7-0.1-2c1,0.7,2.4,1,3.5,0.2c0.9-0.7,1-2,0.8-3
			c-0.1-0.9-0.8-1.7-1.7-1.9c-0.7-0.2-1.5,0-2.2,0.4c-0.7,0.7-0.7-0.3-0.6-0.8C575.9,63.5,575.9,63.2,575.9,63L575.9,63z"/>
		<path d="M723.5,63c1.7-0.9,4.1-1,5.6,0.4c1.3,1.3,1.5,3.3,1,5c-0.4,1.5-1.7,2.7-3.2,2.8c-1.1,0.2-2.1,0-3.1-0.5
			c-0.5-0.5-0.4-1.7-0.1-2c1,0.7,2.4,1,3.5,0.2c0.9-0.7,1-2,0.8-3c-0.1-0.9-0.8-1.7-1.7-1.9c-0.7-0.2-1.5,0-2.2,0.4
			c-0.7,0.7-0.7-0.3-0.6-0.8C723.5,63.5,723.5,63.2,723.5,63L723.5,63z M714.1,63c1.7-0.9,4.1-1,5.6,0.4c1.3,1.3,1.5,3.3,1,5
			c-0.4,1.5-1.7,2.7-3.2,2.8c-1.1,0.2-2.1,0-3.1-0.5c-0.5-0.5-0.4-1.7-0.1-2c1,0.7,2.4,1,3.5,0.2c0.9-0.7,1-2,0.8-3
			c-0.1-0.9-0.8-1.7-1.7-1.9c-0.7-0.2-1.5,0-2.2,0.4c-0.7,0.7-0.7-0.3-0.6-0.8C714.2,63.5,714.2,63.2,714.1,63L714.1,63z"/>
		<path class="st1" d="M1032.6-383.5V92.6h519v-476.1h-225.6c-6.9,12.5-20.3,21-35.6,21s-28.7-8.5-35.6-21L1032.6-383.5
			L1032.6-383.5z M1060.6-358.2h16.6c3.4,0,6.1,2.7,6.1,6.1v28.9c0,3.4-2.7,6.1-6.1,6.1h-16.6c-3.4,0-6.1-2.7-6.1-6.1V-352
			C1054.4-355.4,1057.2-358.2,1060.6-358.2z M1125.7-358.2h16.6c3.4,0,6.1,2.7,6.1,6.1v28.9c0,3.4-2.7,6.1-6.1,6.1h-16.6
			c-3.4,0-6.1-2.7-6.1-6.1V-352C1119.6-355.4,1122.3-358.2,1125.7-358.2z M1190.8-358.2h16.6c3.4,0,6.1,2.7,6.1,6.1v28.9
			c0,3.4-2.7,6.1-6.1,6.1h-16.6c-3.4,0-6.1-2.7-6.1-6.1V-352C1184.7-355.4,1187.4-358.2,1190.8-358.2z M1256-358.2h16.6
			c3.4,0,6.1,2.7,6.1,6.1v28.9c0,3.4-2.7,6.1-6.1,6.1H1256c-3.4,0-6.1-2.7-6.1-6.1V-352C1249.9-355.4,1252.6-358.2,1256-358.2z
			 M1321.1-358.2h16.6c3.4,0,6.1,2.7,6.1,6.1v28.9c0,3.4-2.7,6.1-6.1,6.1h-16.6c-3.4,0-6.1-2.7-6.1-6.1V-352
			C1315-355.4,1317.7-358.2,1321.1-358.2z M1386.3-358.2h16.6c3.4,0,6.1,2.7,6.1,6.1v28.9c0,3.4-2.7,6.1-6.1,6.1h-16.6
			c-3.4,0-6.1-2.7-6.1-6.1V-352C1380.2-355.4,1382.9-358.2,1386.3-358.2z M1451.4-358.2h16.6c3.4,0,6.1,2.7,6.1,6.1v28.9
			c0,3.4-2.7,6.1-6.1,6.1h-16.6c-3.4,0-6.1-2.7-6.1-6.1V-352C1445.3-355.4,1448-358.2,1451.4-358.2z M1516.6-358.2h16.6
			c3.4,0,6.1,2.7,6.1,6.1v28.9c0,3.4-2.7,6.1-6.1,6.1h-16.6c-3.4,0-6.1-2.7-6.1-6.1V-352C1510.4-355.4,1513.2-358.2,1516.6-358.2z
			 M1056.2-309.2h471.7c6.8,0,12.3,5.5,12.3,12.3V3.3c0,6.8-5.5,12.3-12.3,12.3h-471.7c-6.8,0-12.3-5.5-12.3-12.3v-300.2
			C1043.9-303.7,1049.4-309.2,1056.2-309.2L1056.2-309.2z M1059.7,25.2h16.6c3.4,0,6.1,2.7,6.1,6.1v28.9c0,3.4-2.7,6.1-6.1,6.1
			h-16.6c-3.4,0-6.1-2.7-6.1-6.1V31.3C1053.6,27.9,1056.3,25.2,1059.7,25.2z M1124.8,25.2h16.6c3.4,0,6.1,2.7,6.1,6.1v28.9
			c0,3.4-2.7,6.1-6.1,6.1h-16.6c-3.4,0-6.1-2.7-6.1-6.1V31.3C1118.7,27.9,1121.4,25.2,1124.8,25.2z M1190,25.2h16.6
			c3.4,0,6.1,2.7,6.1,6.1v28.9c0,3.4-2.7,6.1-6.1,6.1H1190c-3.4,0-6.1-2.7-6.1-6.1V31.3C1183.8,27.9,1186.6,25.2,1190,25.2z
			 M1255.1,25.2h16.6c3.4,0,6.1,2.7,6.1,6.1v28.9c0,3.4-2.7,6.1-6.1,6.1h-16.6c-3.4,0-6.1-2.7-6.1-6.1V31.3
			C1249,27.9,1251.7,25.2,1255.1,25.2z M1320.3,25.2h16.6c3.4,0,6.1,2.7,6.1,6.1v28.9c0,3.4-2.7,6.1-6.1,6.1h-16.6
			c-3.4,0-6.1-2.7-6.1-6.1V31.3C1314.1,27.9,1316.9,25.2,1320.3,25.2z M1385.4,25.2h16.6c3.4,0,6.1,2.7,6.1,6.1v28.9
			c0,3.4-2.7,6.1-6.1,6.1h-16.6c-3.4,0-6.1-2.7-6.1-6.1V31.3C1379.3,27.9,1382,25.2,1385.4,25.2z M1450.5,25.2h16.6
			c3.4,0,6.1,2.7,6.1,6.1v28.9c0,3.4-2.7,6.1-6.1,6.1h-16.6c-3.4,0-6.1-2.7-6.1-6.1V31.3C1444.4,27.9,1447.1,25.2,1450.5,25.2z
			 M1515.7,25.2h16.6c3.4,0,6.1,2.7,6.1,6.1v28.9c0,3.4-2.7,6.1-6.1,6.1h-16.6c-3.4,0-6.1-2.7-6.1-6.1V31.3
			C1509.6,27.9,1512.3,25.2,1515.7,25.2z"/>
		<path class="st2" d="M1201.3-383.5L1201.3-383.5L1201.3-383.5l-0.1,12.1h-5.6v-12.1h-6.2v25.5c0.4-0.1,0.9-0.2,1.4-0.2h16.6
			c2.6,0,4.8,1.6,5.7,3.9h6.1v-29.3h-6.2v11.7h-5.6v-11.7L1201.3-383.5L1201.3-383.5z M1329.5-383.5v25.4h8.3c2.6,0,4.8,1.6,5.7,3.9
			h4v-29.3h-6.2v11.7h-5.6v-11.7L1329.5-383.5L1329.5-383.5z M1032.8-383.5v12h6.2v-12C1039-383.5,1032.8-383.5,1032.8-383.5z
			 M1065.6-383.5v25.3h11.6c2.8,0,5.1,1.8,5.9,4.3h0.5v-29.6h-6.2v12.1h-5.6v-12.1L1065.6-383.5L1065.6-383.5z M1500.2-383.5v12h6.2
			v-12C1506.4-383.5,1500.2-383.5,1500.2-383.5z M1533-383.5v25.3h0.2c2.8,0,5.1,1.8,5.9,4.3h11.9v-29.6h-6.2v12.1h-5.6v-12.1
			L1533-383.5L1533-383.5z M1045.5-383.2v11.8h-6.2v17.6h6.2v-17.3h6.2v17.6h2.9c0.4-1.8,1.7-3.3,3.3-4v-25.6L1045.5-383.2
			L1045.5-383.2z M1512.9-383.2v11.8h-6.2v17.6h4c0.4-1.3,1.2-2.3,2.2-3.1v-14.2h6.2v13h6.2v-25L1512.9-383.2L1512.9-383.2z
			 M1246-383.2v12h6.2v-12C1252.2-383.2,1246-383.2,1246-383.2z M1420.1-380.5c-3.3,0.3-5.1,3.9-4.9,7c-0.3,3.4,1.1,8.1,5.4,7.7
			c4.6-0.3,5.6-7.7,1.5-9.4c-1.4-0.9-5.3,1.4-3.6-1.7c1.1-2.8,6,0.7,5.3-3c-0.9-0.4-1.9-0.6-2.9-0.6
			C1420.6-380.5,1420.3-380.5,1420.1-380.5L1420.1-380.5z M1429.6-380.4c-0.9,0-1.8,0.3-2.5,0.7c-1,4.8,3.3,0,4.9,2.8
			c1.3,2.1,1.2,4.9,0.3,7.1c-0.9,3.4-5.3-0.9-5.3,2.4c0.8,2.6,4.6,1.8,6.4,0.7c2.7-2.2,2.9-6.2,2.1-9.3
			C1435-378.8,1432.3-380.5,1429.6-380.4L1429.6-380.4z M1146.5-378.2c-1,0-2,0.3-2.8,1c-1.9,1.6-2.2,5.1,0.1,6.5
			c-0.2,0.8-1.4,2.2-1.1,3.5c-0.1,2,1.6,3.9,3.6,3.9c1.7,0.4,3.5-0.5,4.3-2.1c1-1.7,0.3-4.4-1.7-4.9c1-0.2,1.8-1,2.2-1.9
			c1.3-2.3-0.4-5.1-2.8-5.8C1147.7-378.2,1147.1-378.3,1146.5-378.2L1146.5-378.2z M1112-378.2v3.6h-17.3v5.7h17.3v3.6l5.6-3.2
			l5.6-3.2l-5.6-3.2L1112-378.2L1112-378.2z M1160-378.2c-0.5,0-0.9,0.1-1.3,0.3c-2.1-0.5-4.5,0.8-5.3,2.9c-0.4,1.2-0.4,2.8,0.8,3.5
			c1.2,0.4,1.2,1.8,0.2,2.5c-1.4,1.1-0.8,3.3,0.5,4.2c2.4,1.6,5.4,0.8,8.1,1c0-2.1,0-4.3,0-6.5c-0.2-1.9,0.6-3.8,0.1-5.7
			C1162.8-377.3,1161.4-378.2,1160-378.2L1160-378.2z M1146.6-375.9c0.8,0,1.6,0.4,1.9,1.2c0.9,1.3,0,3.4-1.7,3.2
			c-1.6,0.2-2.5-1.7-1.9-3C1145.1-375.5,1145.8-375.9,1146.6-375.9L1146.6-375.9z M1158.1-375.8c2.1,0,3.1,2.6,2.3,4.3
			c-1.1,0.4-2.4,0.3-3.3-0.4C1155.4-372.9,1156.2-375.6,1158.1-375.8L1158.1-375.8z M1317.7-373.2c-0.3,0.3-0.6,0.5-0.9,0.8v16
			c1.1-1.1,2.7-1.8,4.4-1.8h1.8v-15L1317.7-373.2L1317.7-373.2z M1420.1-373.1c2.2,0.2,2.5,3.7,1,4.8
			C1417.9-366.6,1416.9-372.8,1420.1-373.1z M1226.6-371.8v17.6h6.2v-17.6H1226.6z M1239.5-371.8v17.6h6.2v-17.6H1239.5z
			 M1252.4-371.8v14.9c1-0.7,2.3-1.2,3.6-1.2h2.6v-13.7L1252.4-371.8L1252.4-371.8z M1265.3-371.2v13h6.2v-9
			C1269.3-368.3,1267.2-369.7,1265.3-371.2L1265.3-371.2z M1158.7-369.4c1.6,0,2.7,2,1.7,3.4c-0.9,0.2-1.9,0.2-2.8-0.2
			c-1.8-0.6-0.9-3.1,0.8-3.1C1158.5-369.3,1158.6-369.4,1158.7-369.4L1158.7-369.4z M1146.7-369.3c0.9-0.1,1.9,0.7,1.8,1.7
			c0.2,1.4-1.4,2.1-2.5,1.7c-1.4-0.4-1.1-2.2-0.1-2.9C1146.2-369.1,1146.4-369.2,1146.7-369.3L1146.7-369.3z M1310.1-367.7
			c-2,1.1-4,2.1-6.2,2.8v10.2h6.2V-367.7L1310.1-367.7z M1278.1-364.4v9.7h6.2v-8.3C1282.2-363.3,1280.1-363.8,1278.1-364.4z
			 M1297.2-363.1c-2,0.3-4.1,0.5-6.2,0.6v7.9h6.2V-363.1L1297.2-363.1z"/>
		<path class="st2" d="M1032.6-349.4v19.3h21.9v-19.3H1032.6z M1083.3-349.4v19.3h36.3v-19.3
			C1119.6-349.4,1083.3-349.4,1083.3-349.4z M1148.5-349.4v19.3h36.2v-19.3H1148.5z M1213.6-349.4v19.3h36.3v-19.3H1213.6z
			 M1278.7-349.4v19.3h36.3v-19.3H1278.7z M1343.9-349.4v19.3h36.3v-19.3H1343.9z M1409-349.4v19.3h36.2v-19.3H1409z M1474.2-349.4
			v19.3h36.3v-19.3H1474.2z M1539.3-349.4v19.3h12.3v-19.3H1539.3z"/>
		<path class="st2" d="M1031.6,33.8l0,19.8h22V33.8H1031.6z M1082.4,33.8v19.8h36.3V33.8C1118.7,33.8,1082.4,33.8,1082.4,33.8z
			 M1147.6,33.8v19.8h36.2V33.8H1147.6z M1212.7,33.8v19.8h36.3V33.8H1212.7z M1277.9,33.8v19.8h36.3V33.8H1277.9z M1343,33.8v19.8
			h36.3V33.8H1343z M1408.2,33.8v19.8h36.2V33.8H1408.2z M1473.3,33.8v19.8h36.3V33.8H1473.3z M1538.4,33.8v19.8h13.1V33.8H1538.4z"
			/>
		<path class="st2" d="M1036.9,70.3v22.3h12.4V70.3H1036.9z M1054.8,70.3v22.3h8V70.3H1054.8z M1174.9,70.3v22.3h12.4V70.3H1174.9z
			 M1192.8,70.3v22.3h8V70.3H1192.8z M1205.4,70.3v22.3h8V70.3H1205.4z M1371.7,70.3v22.3h8V70.3H1371.7z M1384,70.3v22.3h8V70.3
			H1384z M1395.8,70.3v22.3h12.4V70.3H1395.8z M1426,70.3v22.3h8V70.3H1426z M1438.3,70.3v22.3h8V70.3H1438.3z M1450.5,70.3v22.3h8
			V70.3H1450.5z M1518.8,70.3v22.3h8V70.3H1518.8z M1532,70.3v22.3h12.4V70.3H1532z"/>
		<path d="M1285,78.1"/>
		<path d="M1100,63c1.7-0.9,4.1-1,5.6,0.4c1.3,1.3,1.5,3.3,1,5c-0.4,1.5-1.7,2.7-3.2,2.8c-1.1,0.2-2.1,0-3.1-0.5
			c-0.5-0.5-0.4-1.7-0.1-2c1,0.7,2.4,1,3.5,0.2c0.9-0.7,1-2,0.8-3c-0.1-0.9-0.8-1.7-1.7-1.9c-0.7-0.2-1.5,0-2.2,0.4
			c-0.7,0.7-0.7-0.3-0.6-0.8C1100,63.5,1100,63.2,1100,63L1100,63z M1090.6,63c1.7-0.9,4.1-1,5.6,0.4c1.3,1.3,1.5,3.3,1,5
			c-0.4,1.5-1.7,2.7-3.2,2.8c-1.1,0.2-2.1,0-3.1-0.5c-0.5-0.5-0.4-1.7-0.1-2c1,0.7,2.4,1,3.5,0.2c0.9-0.7,1-2,0.8-3
			c-0.1-0.9-0.8-1.7-1.7-1.9c-0.7-0.2-1.5,0-2.2,0.4c-0.7,0.7-0.7-0.3-0.6-0.8C1090.6,63.5,1090.6,63.2,1090.6,63L1090.6,63z"/>
		<path d="M1238.2,63c1.7-0.9,4.1-1,5.6,0.4c1.3,1.3,1.5,3.3,1,5c-0.4,1.5-1.7,2.7-3.2,2.8c-1.1,0.2-2.1,0-3.1-0.5
			c-0.5-0.5-0.4-1.7-0.1-2c1,0.7,2.4,1,3.5,0.2c0.9-0.7,1-2,0.8-3c-0.1-0.9-0.8-1.7-1.7-1.9c-0.7-0.2-1.5,0-2.2,0.4
			c-0.7,0.7-0.7-0.3-0.6-0.8C1238.2,63.5,1238.2,63.2,1238.2,63L1238.2,63z M1228.9,63c1.7-0.9,4.1-1,5.6,0.4c1.3,1.3,1.5,3.3,1,5
			c-0.4,1.5-1.7,2.7-3.2,2.8c-1.1,0.2-2.1,0-3.1-0.5c-0.5-0.5-0.4-1.7-0.1-2c1,0.7,2.4,1,3.5,0.2c0.9-0.7,1-2,0.8-3
			c-0.1-0.9-0.8-1.7-1.7-1.9c-0.7-0.2-1.5,0-2.2,0.4c-0.7,0.7-0.7-0.3-0.6-0.8C1228.9,63.5,1228.9,63.2,1228.9,63L1228.9,63z"/>
		<path class="st1" d="M-0.5-383.5l0,476.1h519v-476.1H292.8c-6.9,12.5-20.3,21-35.6,21s-28.7-8.5-35.6-21L-0.5-383.5L-0.5-383.5z
			 M27.5-358.2h16.6c3.4,0,6.1,2.7,6.1,6.1v28.9c0,3.4-2.7,6.1-6.1,6.1H27.5c-3.4,0-6.1-2.7-6.1-6.1V-352
			C21.3-355.4,24.1-358.2,27.5-358.2z M92.6-358.2h16.6c3.4,0,6.1,2.7,6.1,6.1v28.9c0,3.4-2.7,6.1-6.1,6.1H92.6
			c-3.4,0-6.1-2.7-6.1-6.1V-352C86.5-355.4,89.2-358.2,92.6-358.2z M157.7-358.2h16.6c3.4,0,6.1,2.7,6.1,6.1v28.9
			c0,3.4-2.7,6.1-6.1,6.1h-16.6c-3.4,0-6.1-2.7-6.1-6.1V-352C151.6-355.4,154.3-358.2,157.7-358.2z M222.9-358.2h16.6
			c3.4,0,6.1,2.7,6.1,6.1v28.9c0,3.4-2.7,6.1-6.1,6.1h-16.6c-3.4,0-6.1-2.7-6.1-6.1V-352C216.8-355.4,219.5-358.2,222.9-358.2z
			 M288-358.2h16.6c3.4,0,6.1,2.7,6.1,6.1v28.9c0,3.4-2.7,6.1-6.1,6.1H288c-3.4,0-6.1-2.7-6.1-6.1V-352
			C281.9-355.4,284.6-358.2,288-358.2z M353.2-358.2h16.6c3.4,0,6.1,2.7,6.1,6.1v28.9c0,3.4-2.7,6.1-6.1,6.1h-16.6
			c-3.4,0-6.1-2.7-6.1-6.1V-352C347.1-355.4,349.8-358.2,353.2-358.2z M418.3-358.2h16.6c3.4,0,6.1,2.7,6.1,6.1v28.9
			c0,3.4-2.7,6.1-6.1,6.1h-16.6c-3.4,0-6.1-2.7-6.1-6.1V-352C412.2-355.4,414.9-358.2,418.3-358.2z M483.5-358.2h16.6
			c3.4,0,6.1,2.7,6.1,6.1v28.9c0,3.4-2.7,6.1-6.1,6.1h-16.6c-3.4,0-6.1-2.7-6.1-6.1V-352C477.3-355.4,480.1-358.2,483.5-358.2z
			 M23.1-309.2h471.7c6.8,0,12.3,5.5,12.3,12.3V3.3c0,6.8-5.5,12.3-12.3,12.3H23.1c-6.8,0-12.3-5.5-12.3-12.3v-300.2
			C10.8-303.7,16.3-309.2,23.1-309.2L23.1-309.2z M26.6,25.2h16.6c3.4,0,6.1,2.7,6.1,6.1v28.9c0,3.4-2.7,6.1-6.1,6.1H26.6
			c-3.4,0-6.1-2.7-6.1-6.1V31.3C20.5,27.9,23.2,25.2,26.6,25.2z M91.7,25.2h16.6c3.4,0,6.1,2.7,6.1,6.1v28.9c0,3.4-2.7,6.1-6.1,6.1
			H91.7c-3.4,0-6.1-2.7-6.1-6.1V31.3C85.6,27.9,88.3,25.2,91.7,25.2z M156.9,25.2h16.6c3.4,0,6.1,2.7,6.1,6.1v28.9
			c0,3.4-2.7,6.1-6.1,6.1h-16.6c-3.4,0-6.1-2.7-6.1-6.1V31.3C150.7,27.9,153.5,25.2,156.9,25.2z M222,25.2h16.6
			c3.4,0,6.1,2.7,6.1,6.1v28.9c0,3.4-2.7,6.1-6.1,6.1H222c-3.4,0-6.1-2.7-6.1-6.1V31.3C215.9,27.9,218.6,25.2,222,25.2z M287.2,25.2
			h16.6c3.4,0,6.1,2.7,6.1,6.1v28.9c0,3.4-2.7,6.1-6.1,6.1h-16.6c-3.4,0-6.1-2.7-6.1-6.1V31.3C281,27.9,283.8,25.2,287.2,25.2z
			 M352.3,25.2h16.6c3.4,0,6.1,2.7,6.1,6.1v28.9c0,3.4-2.7,6.1-6.1,6.1h-16.6c-3.4,0-6.1-2.7-6.1-6.1V31.3
			C346.2,27.9,348.9,25.2,352.3,25.2z M417.4,25.2h16.6c3.4,0,6.1,2.7,6.1,6.1v28.9c0,3.4-2.7,6.1-6.1,6.1h-16.6
			c-3.4,0-6.1-2.7-6.1-6.1V31.3C411.3,27.9,414,25.2,417.4,25.2z M482.6,25.2h16.6c3.4,0,6.1,2.7,6.1,6.1v28.9
			c0,3.4-2.7,6.1-6.1,6.1h-16.6c-3.4,0-6.1-2.7-6.1-6.1V31.3C476.5,27.9,479.2,25.2,482.6,25.2z"/>
		<path class="st2" d="M168.2-383.5L168.2-383.5L168.2-383.5l-0.1,12.1h-5.6v-12.1h-6.2v25.5c0.4-0.1,0.9-0.2,1.4-0.2h16.6
			c2.6,0,4.8,1.6,5.7,3.9h6.1v-29.3h-6.2v11.7h-5.6v-11.7L168.2-383.5L168.2-383.5z M296.4-383.5v25.4h8.3c2.6,0,4.8,1.6,5.7,3.9h4
			v-29.3h-6.2v11.7h-5.6v-11.7L296.4-383.5L296.4-383.5z M-0.3-383.5v12h6.2v-12C5.9-383.5-0.3-383.5-0.3-383.5z M32.5-383.5v25.3
			h11.6c2.8,0,5.1,1.8,5.9,4.3h0.5v-29.6h-6.2v12.1h-5.6v-12.1L32.5-383.5L32.5-383.5z M467.1-383.5v12h6.2v-12
			C473.3-383.5,467.1-383.5,467.1-383.5z M499.9-383.5v25.3h0.2c2.8,0,5.1,1.8,5.9,4.3h11.9v-29.6h-6.2v12.1h-5.6v-12.1L499.9-383.5
			L499.9-383.5z M12.4-383.2v11.8H6.2v17.6h6.2v-17.3h6.2v17.6h2.9c0.4-1.8,1.7-3.3,3.3-4v-25.6L12.4-383.2L12.4-383.2z
			 M479.8-383.2v11.8h-6.2v17.6h4c0.4-1.3,1.2-2.3,2.2-3.1v-14.2h6.2v13h6.2v-25L479.8-383.2L479.8-383.2z M212.9-383.2v12h6.2v-12
			C219.1-383.2,212.9-383.2,212.9-383.2z M387-380.5c-3.3,0.3-5.1,3.9-4.9,7c-0.3,3.4,1.1,8.1,5.4,7.7c4.6-0.3,5.6-7.7,1.5-9.4
			c-1.4-0.9-5.3,1.4-3.6-1.7c1.1-2.8,6,0.7,5.3-3c-0.9-0.4-1.9-0.6-2.9-0.6C387.5-380.5,387.2-380.5,387-380.5L387-380.5z
			 M396.5-380.4c-0.9,0-1.8,0.3-2.5,0.7c-1,4.8,3.3,0,4.9,2.8c1.3,2.1,1.2,4.9,0.3,7.1c-0.9,3.4-5.3-0.9-5.3,2.4
			c0.8,2.6,4.6,1.8,6.4,0.7c2.7-2.2,2.9-6.2,2.1-9.3C401.9-378.8,399.2-380.5,396.5-380.4L396.5-380.4z M113.4-378.2
			c-1,0-2,0.3-2.8,1c-1.9,1.6-2.2,5.1,0.1,6.5c-0.2,0.8-1.4,2.2-1.1,3.5c-0.1,2,1.6,3.9,3.6,3.9c1.7,0.4,3.5-0.5,4.3-2.1
			c1-1.7,0.3-4.4-1.7-4.9c1-0.2,1.8-1,2.2-1.9c1.3-2.3-0.4-5.1-2.8-5.8C114.6-378.2,114-378.3,113.4-378.2L113.4-378.2z M78.9-378.2
			v3.6H61.6v5.7h17.3v3.6l5.6-3.2l5.6-3.2l-5.6-3.2L78.9-378.2L78.9-378.2z M126.9-378.2c-0.5,0-0.9,0.1-1.3,0.3
			c-2.1-0.5-4.5,0.8-5.3,2.9c-0.4,1.2-0.4,2.8,0.8,3.5c1.2,0.4,1.2,1.8,0.2,2.5c-1.4,1.1-0.8,3.3,0.5,4.2c2.4,1.6,5.4,0.8,8.1,1
			c0-2.1,0-4.3,0-6.5c-0.2-1.9,0.6-3.8,0.1-5.7C129.7-377.3,128.3-378.2,126.9-378.2L126.9-378.2z M113.5-375.9
			c0.8,0,1.6,0.4,1.9,1.2c0.9,1.3,0,3.4-1.7,3.2c-1.6,0.2-2.5-1.7-1.9-3C112-375.5,112.7-375.9,113.5-375.9L113.5-375.9z M125-375.8
			c2.1,0,3.1,2.6,2.3,4.3c-1.1,0.4-2.4,0.3-3.3-0.4C122.3-372.9,123.1-375.6,125-375.8L125-375.8z M284.6-373.2
			c-0.3,0.3-0.6,0.5-0.9,0.8v16c1.1-1.1,2.7-1.8,4.4-1.8h1.8v-15L284.6-373.2L284.6-373.2z M387-373.1c2.2,0.2,2.5,3.7,1,4.8
			C384.8-366.6,383.8-372.8,387-373.1z M193.5-371.8v17.6h6.2v-17.6H193.5z M206.4-371.8v17.6h6.2v-17.6H206.4z M219.3-371.8v14.9
			c1-0.7,2.3-1.2,3.6-1.2h2.6v-13.7L219.3-371.8L219.3-371.8z M232.1-371.2v13h6.2v-9C236.2-368.3,234.1-369.7,232.1-371.2
			L232.1-371.2z M125.6-369.4c1.6,0,2.7,2,1.7,3.4c-0.9,0.2-1.9,0.2-2.8-0.2c-1.8-0.6-0.9-3.1,0.8-3.1
			C125.3-369.3,125.5-369.4,125.6-369.4L125.6-369.4z M113.6-369.3c0.9-0.1,1.9,0.7,1.8,1.7c0.2,1.4-1.4,2.1-2.5,1.7
			c-1.4-0.4-1.1-2.2-0.1-2.9C113.1-369.1,113.3-369.2,113.6-369.3L113.6-369.3z M277-367.7c-2,1.1-4,2.1-6.2,2.8v10.2h6.2V-367.7
			L277-367.7z M245-364.4v9.7h6.2v-8.3C249.1-363.3,247-363.8,245-364.4z M264.1-363.1c-2,0.3-4.1,0.5-6.2,0.6v7.9h6.2V-363.1
			L264.1-363.1z"/>
		<path class="st2" d="M-0.5-349.4v19.3h21.9v-19.3H-0.5z M50.2-349.4v19.3h36.3v-19.3C86.5-349.4,50.2-349.4,50.2-349.4z
			 M115.4-349.4v19.3h36.2v-19.3H115.4z M180.5-349.4v19.3h36.3v-19.3H180.5z M245.6-349.4v19.3h36.3v-19.3H245.6z M310.8-349.4
			v19.3h36.3v-19.3H310.8z M375.9-349.4v19.3h36.2v-19.3H375.9z M441.1-349.4v19.3h36.3v-19.3H441.1z M506.2-349.4v19.3h12.3v-19.3
			H506.2z"/>
		<path class="st2" d="M-0.5,33.8v19.8h21V33.8H-0.5z M49.3,33.8v19.8h36.3V33.8C85.6,33.8,49.3,33.8,49.3,33.8z M114.5,33.8v19.8
			h36.2V33.8H114.5z M179.6,33.8v19.8h36.3V33.8H179.6z M244.8,33.8v19.8H281V33.8H244.8z M309.9,33.8v19.8h36.3V33.8H309.9z
			 M375.1,33.8v19.8h36.2V33.8H375.1z M440.2,33.8v19.8h36.3V33.8H440.2z M505.3,33.8v19.8h15.3V33.8H505.3z"/>
		<path class="st2" d="M3.8,70.3v22.3h12.4V70.3H3.8z M21.7,70.3v22.3h8V70.3H21.7z M141.8,70.3v22.3h12.4V70.3H141.8z M159.7,70.3
			v22.3h8V70.3H159.7z M172.3,70.3v22.3h8V70.3H172.3z M338.6,70.3v22.3h8V70.3H338.6z M350.9,70.3v22.3h8V70.3H350.9z M362.7,70.3
			v22.3h12.4V70.3H362.7z M392.9,70.3v22.3h8V70.3H392.9z M405.2,70.3v22.3h8V70.3H405.2z M417.4,70.3v22.3h8V70.3H417.4z
			 M485.7,70.3v22.3h8V70.3H485.7z M498.9,70.3v22.3h12.4V70.3H498.9z"/>
		<path d="M66.9,63c1.7-0.9,4.1-1,5.6,0.4c1.3,1.3,1.5,3.3,1,5c-0.4,1.5-1.7,2.7-3.2,2.8c-1.1,0.2-2.1,0-3.1-0.5
			c-0.5-0.5-0.4-1.7-0.1-2c1,0.7,2.4,1,3.5,0.2c0.9-0.7,1-2,0.8-3c-0.1-0.9-0.8-1.7-1.7-1.9c-0.7-0.2-1.5,0-2.2,0.4
			c-0.7,0.7-0.7-0.3-0.6-0.8C66.9,63.5,66.9,63.2,66.9,63L66.9,63z M57.5,63c1.7-0.9,4.1-1,5.6,0.4c1.3,1.3,1.5,3.3,1,5
			c-0.4,1.5-1.7,2.7-3.2,2.8c-1.1,0.2-2.1,0-3.1-0.5c-0.5-0.5-0.4-1.7-0.1-2c1,0.7,2.4,1,3.5,0.2c0.9-0.7,1-2,0.8-3
			c-0.1-0.9-0.8-1.7-1.7-1.9c-0.7-0.2-1.5,0-2.2,0.4c-0.7,0.7-0.7-0.3-0.6-0.8C57.5,63.5,57.5,63.2,57.5,63L57.5,63z"/>
		<path d="M205.1,63c1.7-0.9,4.1-1,5.6,0.4c1.3,1.3,1.5,3.3,1,5c-0.4,1.5-1.7,2.7-3.2,2.8c-1.1,0.2-2.1,0-3.1-0.5
			c-0.5-0.5-0.4-1.7-0.1-2c1,0.7,2.4,1,3.5,0.2c0.9-0.7,1-2,0.8-3c-0.1-0.9-0.8-1.7-1.7-1.9c-0.7-0.2-1.5,0-2.2,0.4
			c-0.7,0.7-0.7-0.3-0.6-0.8C205.1,63.5,205.1,63.2,205.1,63L205.1,63z M195.8,63c1.7-0.9,4.1-1,5.6,0.4c1.3,1.3,1.5,3.3,1,5
			c-0.4,1.5-1.7,2.7-3.2,2.8c-1.1,0.2-2.1,0-3.1-0.5c-0.5-0.5-0.4-1.7-0.1-2c1,0.7,2.4,1,3.5,0.2c0.9-0.7,1-2,0.8-3
			c-0.1-0.9-0.8-1.7-1.7-1.9c-0.7-0.2-1.5,0-2.2,0.4c-0.7,0.7-0.7-0.3-0.6-0.8C195.8,63.5,195.8,63.2,195.8,63L195.8,63z"/>
		<rect x="317.8" y="67.5" class="st2" width="6.2" height="12"/>
		<path class="st2" d="M287.2,92.6V66.3H287c-2.8,0-5.1-1.9-5.9-4.5h-11.9v30.7h6.2V80.1h5.6v12.5L287.2,92.6L287.2,92.6z"/>
		<rect x="260.2" y="80.1" class="st2" width="6.2" height="12.4"/>
		<path class="st2" d="M233.6,92.6V66.4H222c-2.8,0-5.1-1.9-5.9-4.5h-0.5v30.7h6.2V80.1h5.6v12.5L233.6,92.6L233.6,92.6z"/>
		<path class="st2" d="M253.7,92.6V80.3h6.2V61.9h-6.2V80h-6.2V61.5h-2.9c-0.4,1.9-1.7,3.4-3.3,4.2v26.8L253.7,92.6L253.7,92.6z"/>
		<path class="st2" d="M307.3,92.6V80.4h6.2V62.2h-4c-0.4,1.3-1.2,2.4-2.2,3.2v14.7h-6.2V66.6h-6.2v25.9L307.3,92.6L307.3,92.6z"/>
		<g>
			<path d="M1142.7,74.2c0,1.5-0.9,2.6-2.3,3.2v0.1c1.2,0.6,1.9,1.7,1.9,2.8c0,2.2-2,3.6-4.5,3.6c-3,0-4.3-1.7-4.3-3.3
				c0-1.1,0.6-2.2,1.9-2.8v-0.1c-1.2-0.5-2.4-1.5-2.4-3.2c0-2.3,2-3.9,4.9-3.9C1141.2,70.6,1142.7,72.4,1142.7,74.2z M1136,74.3
				c0,1.1,0.8,1.8,2,2.1c1-0.3,1.6-1,1.6-1.9c0-0.9-0.7-1.8-1.8-1.8C1136.7,72.7,1136,73.4,1136,74.3z M1139.4,80.4
				c0-0.9-0.8-1.4-1.8-1.7c-0.7,0.2-1.3,0.8-1.3,1.6c0,0.8,0.5,1.6,1.6,1.6C1138.9,81.9,1139.4,81.2,1139.4,80.4z"/>
			<path d="M1131.5,84c-0.8,0.2-2.4,0.3-3.9,0.3c-1.8,0-3-0.2-3.9-0.8c-0.9-0.5-1.6-1.4-1.6-2.6c0-1.2,0.7-2.3,2.2-2.8v0
				c-1.5-0.4-2.6-1.6-2.6-3.3c0-1.2,0.6-2.2,1.4-2.8c1-0.8,2.6-1.2,5.2-1.2c1.5,0,2.6,0.1,3.3,0.2V84z M1128.5,78.9h-1
				c-1.6,0-2.4,0.7-2.4,1.6c0,1,0.8,1.5,2.1,1.5c0.7,0,1,0,1.3-0.1V78.9z M1128.5,73c-0.3,0-0.7,0-1.2,0c-1.4,0-2.6,0.5-2.6,1.9
				c0,1.3,1.2,1.9,2.7,1.9h1V73z"/>
		</g>
		<g>
			<path d="M629.1,74.1c-0.4,0-0.7,0-1.3,0c-0.9,0.1-1.8,0.3-2.5,0.8c-0.8,0.6-1.4,1.4-1.6,2.4l0.1,0c0.6-0.6,1.4-0.9,2.6-0.9
				c2.2,0,4,1.5,4,4c0,2.5-2,4.6-4.8,4.6c-3.3,0-4.9-2.5-4.9-5.5c0-2.7,0.9-4.6,2.3-5.9c1.2-1.1,2.9-1.7,4.9-1.8c0.5,0,1,0,1.4,0
				V74.1z M627.3,80.5c0-1.1-0.6-2.1-1.8-2.1c-0.8,0-1.4,0.4-1.7,0.9c-0.1,0.2-0.2,0.4-0.2,0.8c0,1.4,0.5,2.7,1.9,2.7
				C626.6,82.8,627.3,81.9,627.3,80.5z"/>
			<path d="M619.1,85.1c-0.8,0.2-2.4,0.3-3.9,0.3c-1.8,0-3-0.2-3.9-0.8c-0.9-0.5-1.6-1.4-1.6-2.6c0-1.2,0.7-2.3,2.2-2.8v0
				c-1.5-0.4-2.6-1.6-2.6-3.3c0-1.2,0.6-2.2,1.4-2.8c1-0.8,2.6-1.2,5.2-1.2c1.5,0,2.6,0.1,3.3,0.2V85.1z M616.1,80h-1
				c-1.6,0-2.4,0.7-2.4,1.6c0,1,0.8,1.5,2.1,1.5c0.7,0,1,0,1.3-0.1V80z M616.1,74.1c-0.3,0-0.7,0-1.2,0c-1.4,0-2.6,0.5-2.6,1.9
				c0,1.3,1.2,1.9,2.7,1.9h1V74.1z"/>
		</g>
		<g>
			<path d="M112.3,81.1L112.3,81.1l2.5-1.2l0.5,2.3l-3.4,1.6h-2.5V70.9h2.9V81.1z"/>
			<path d="M97,77.4c0-4,1.6-6.7,4.9-6.7c3.3,0,4.8,3,4.8,6.6c0,3.7-1.6,6.7-4.9,6.7C98.3,84,97,80.9,97,77.4z M103.6,77.3
				c0-2.9-0.7-4.4-1.9-4.4c-1.2,0-1.8,1.5-1.8,4.4c0,2.8,0.6,4.4,1.8,4.4C102.9,81.7,103.7,80.3,103.6,77.3z"/>
			<path d="M95.5,84.1c-0.8,0.2-2.4,0.3-3.9,0.3c-1.8,0-3-0.2-3.9-0.8c-0.9-0.5-1.6-1.4-1.6-2.6c0-1.2,0.7-2.3,2.2-2.8v0
				c-1.5-0.4-2.6-1.6-2.6-3.3c0-1.2,0.6-2.2,1.4-2.8c1-0.8,2.6-1.2,5.2-1.2c1.5,0,2.6,0.1,3.3,0.2V84.1z M92.5,79h-1
				c-1.6,0-2.4,0.7-2.4,1.6c0,1,0.8,1.5,2.1,1.5c0.7,0,1,0,1.3-0.1V79z M92.5,73.1c-0.3,0-0.7,0-1.2,0c-1.4,0-2.6,0.5-2.6,1.9
				c0,1.3,1.2,1.9,2.7,1.9h1V73.1z"/>
		</g>
		<g>
			<path d="M801.4,76.2c0.1,1.6,0.1,3.5,0.1,5.5h0.1c0.4-1.7,1-3.6,1.5-5.2l1.6-5.2h2.4l1.4,5.2c0.4,1.6,0.9,3.5,1.2,5.2h0
				c0.1-1.8,0.1-3.9,0.2-5.5l0.2-5.1h2.8l-0.9,13.3h-4l-1.3-4.4c-0.4-1.5-0.8-3.2-1.1-4.8h-0.1c-0.4,1.5-0.8,3.3-1.3,4.8l-1.4,4.4
				H799l-0.7-13.3h2.9L801.4,76.2z"/>
			<path d="M788.5,76.7h4.9v-3.2H788v-2.5h8.5v13.3h-8.2V82h5.2v-2.8h-4.9V76.7z"/>
			<path d="M783,81.3L783,81.3l2.5-1.2l0.5,2.3l-3.4,1.6h-2.5V71.1h2.9V81.3z"/>
			<path d="M767.7,77.6c0-4,1.6-6.7,4.9-6.7c3.3,0,4.8,3,4.8,6.6c0,3.7-1.6,6.7-4.9,6.7C769.1,84.2,767.7,81.1,767.7,77.6z
				 M774.4,77.5c0-2.9-0.7-4.4-1.9-4.4c-1.2,0-1.8,1.5-1.8,4.4c0,2.8,0.6,4.4,1.8,4.4C773.7,81.9,774.4,80.5,774.4,77.5z"/>
			<path d="M757.2,77.6c0-4,1.6-6.7,4.9-6.7c3.3,0,4.8,3,4.8,6.6c0,3.7-1.6,6.7-4.9,6.7C758.6,84.2,757.2,81.1,757.2,77.6z
				 M763.9,77.5c0-2.9-0.7-4.4-1.9-4.4c-1.2,0-1.8,1.5-1.8,4.4c0,2.8,0.6,4.4,1.8,4.4C763.2,81.9,763.9,80.5,763.9,77.5z"/>
		</g>
	</g>
</g>
</svg>
