<?xml version="1.0" encoding="utf-8"?>
<!-- Generator: Adobe Illustrator 21.0.0, SVG Export Plug-In . SVG Version: 6.00 Build 0)  -->
<svg version="1.1" id="Слой_1" xmlns="http://www.w3.org/2000/svg" xmlns:xlink="http://www.w3.org/1999/xlink" x="0px" y="0px"
	 viewBox="0 0 1552 88.6" style="enable-background:new 0 0 1552 88.6;" xml:space="preserve">
<style type="text/css">
	.st0{clip-path:url(#SVGID_2_);}
	.st1{fill:#575757;}
	.st2{fill:#2C2C2C;}
</style>
<g>
	<defs>
		<rect id="SVGID_1_" x="-0.3" width="1551.8" height="88.6"/>
	</defs>
	<clipPath id="SVGID_2_">
		<use xlink:href="#SVGID_1_"  style="overflow:visible;"/>
	</clipPath>
	<g class="st0">
		<path class="st1" d="M1033.4,472.1V-4h-519v476.1h225.6c6.9-12.5,20.3-21,35.6-21c15.3,0,28.7,8.5,35.6,21H1033.4L1033.4,472.1z
			 M1005.4,446.7h-16.6c-3.4,0-6.1-2.7-6.1-6.1v-28.9c0-3.4,2.7-6.1,6.1-6.1h16.6c3.4,0,6.1,2.7,6.1,6.1v28.9
			C1011.6,444,1008.8,446.7,1005.4,446.7z M940.3,446.7h-16.6c-3.4,0-6.1-2.7-6.1-6.1v-28.9c0-3.4,2.7-6.1,6.1-6.1h16.6
			c3.4,0,6.1,2.7,6.1,6.1v28.9C946.4,444,943.7,446.7,940.3,446.7z M875.2,446.7h-16.6c-3.4,0-6.1-2.7-6.1-6.1v-28.9
			c0-3.4,2.7-6.1,6.1-6.1h16.6c3.4,0,6.1,2.7,6.1,6.1v28.9C881.3,444,878.6,446.7,875.2,446.7z M810,446.7h-16.6
			c-3.4,0-6.1-2.7-6.1-6.1v-28.9c0-3.4,2.7-6.1,6.1-6.1H810c3.4,0,6.1,2.7,6.1,6.1v28.9C816.1,444,813.4,446.7,810,446.7z
			 M744.9,446.7h-16.6c-3.4,0-6.1-2.7-6.1-6.1v-28.9c0-3.4,2.7-6.1,6.1-6.1h16.6c3.4,0,6.1,2.7,6.1,6.1v28.9
			C751,444,748.3,446.7,744.9,446.7z M679.7,446.7h-16.6c-3.4,0-6.1-2.7-6.1-6.1v-28.9c0-3.4,2.7-6.1,6.1-6.1h16.6
			c3.4,0,6.1,2.7,6.1,6.1v28.9C685.8,444,683.1,446.7,679.7,446.7z M614.6,446.7H598c-3.4,0-6.1-2.7-6.1-6.1v-28.9
			c0-3.4,2.7-6.1,6.1-6.1h16.6c3.4,0,6.1,2.7,6.1,6.1v28.9C620.7,444,618,446.7,614.6,446.7z M549.4,446.7h-16.6
			c-3.4,0-6.1-2.7-6.1-6.1v-28.9c0-3.4,2.7-6.1,6.1-6.1h16.6c3.4,0,6.1,2.7,6.1,6.1v28.9C555.6,444,552.8,446.7,549.4,446.7z
			 M1009.8,397.7H538.1c-6.8,0-12.3-5.5-12.3-12.3V85.3c0-6.8,5.5-12.3,12.3-12.3h471.7c6.8,0,12.3,5.5,12.3,12.3v300.2
			C1022.1,392.3,1016.6,397.7,1009.8,397.7L1009.8,397.7z M1006.3,63.4h-16.6c-3.4,0-6.1-2.7-6.1-6.1V28.4c0-3.4,2.7-6.1,6.1-6.1
			h16.6c3.4,0,6.1,2.7,6.1,6.1v28.9C1012.4,60.7,1009.7,63.4,1006.3,63.4z M941.2,63.4h-16.6c-3.4,0-6.1-2.7-6.1-6.1V28.4
			c0-3.4,2.7-6.1,6.1-6.1h16.6c3.4,0,6.1,2.7,6.1,6.1v28.9C947.3,60.7,944.5,63.4,941.2,63.4z M876,63.4h-16.6
			c-3.4,0-6.1-2.7-6.1-6.1V28.4c0-3.4,2.7-6.1,6.1-6.1H876c3.4,0,6.1,2.7,6.1,6.1v28.9C882.2,60.7,879.4,63.4,876,63.4z M810.9,63.4
			h-16.6c-3.4,0-6.1-2.7-6.1-6.1V28.4c0-3.4,2.7-6.1,6.1-6.1h16.6c3.4,0,6.1,2.7,6.1,6.1v28.9C817,60.7,814.3,63.4,810.9,63.4z
			 M745.7,63.4h-16.6c-3.4,0-6.1-2.7-6.1-6.1V28.4c0-3.4,2.7-6.1,6.1-6.1h16.6c3.4,0,6.1,2.7,6.1,6.1v28.9
			C751.9,60.7,749.1,63.4,745.7,63.4z M680.6,63.4H664c-3.4,0-6.1-2.7-6.1-6.1V28.4c0-3.4,2.7-6.1,6.1-6.1h16.6
			c3.4,0,6.1,2.7,6.1,6.1v28.9C686.7,60.7,684,63.4,680.6,63.4z M615.5,63.4h-16.6c-3.4,0-6.1-2.7-6.1-6.1V28.4
			c0-3.4,2.7-6.1,6.1-6.1h16.6c3.4,0,6.1,2.7,6.1,6.1v28.9C621.6,60.7,618.9,63.4,615.5,63.4z M550.3,63.4h-16.6
			c-3.4,0-6.1-2.7-6.1-6.1V28.4c0-3.4,2.7-6.1,6.1-6.1h16.6c3.4,0,6.1,2.7,6.1,6.1v28.9C556.4,60.7,553.7,63.4,550.3,63.4z"/>
		<path class="st2" d="M1033.4,438v-19.3h-21.9V438H1033.4z M982.7,438v-19.3h-36.3V438C946.4,438,982.7,438,982.7,438z M917.5,438
			v-19.3h-36.2V438H917.5z M852.4,438v-19.3h-36.3V438H852.4z M787.3,438v-19.3H751V438H787.3z M722.1,438v-19.3h-36.3V438H722.1z
			 M657,438v-19.3h-36.2V438H657z M591.8,438v-19.3h-36.3V438H591.8z M526.7,438v-19.3h-12.3V438H526.7z"/>
		<path class="st2" d="M1033.4,54.8V35h-21v19.8H1033.4z M983.5,54.8V35h-36.3v19.8C947.3,54.8,983.5,54.8,983.5,54.8z M918.4,54.8
			V35h-36.2v19.8H918.4z M853.3,54.8V35H817v19.8H853.3z M788.1,54.8V35h-36.3v19.8H788.1z M723,54.8V35h-36.3v19.8H723z
			 M657.8,54.8V35h-36.2v19.8H657.8z M592.7,54.8V35h-36.3v19.8H592.7z M527.6,54.8V35h-13.1v19.8H527.6z"/>
		<path class="st2" d="M1029.1,18.3V-4h-12.4v22.3H1029.1z M1011.2,18.3V-4h-8v22.3H1011.2z M891.1,18.3V-4h-12.4v22.3H891.1z
			 M873.2,18.3V-4h-8v22.3H873.2z M860.6,18.3V-4h-8v22.3H860.6z M694.3,18.3V-4h-8v22.3H694.3z M682,18.3V-4h-8v22.3H682z
			 M670.2,18.3V-4h-12.4v22.3H670.2z M640,18.3V-4h-8v22.3H640z M627.7,18.3V-4h-8v22.3H627.7z M615.5,18.3V-4h-8v22.3H615.5z
			 M547.2,18.3V-4h-8v22.3H547.2z M534,18.3V-4h-12.4v22.3H534z"/>
		<path d="M966,25.6c-1.7,0.9-4.1,1-5.6-0.4c-1.3-1.3-1.5-3.3-1-5c0.4-1.5,1.7-2.7,3.2-2.8c1.1-0.2,2.1,0,3.1,0.5
			c0.5,0.5,0.4,1.7,0.1,2c-1-0.7-2.4-1-3.5-0.2c-0.9,0.7-1,2-0.8,3c0.1,0.9,0.8,1.7,1.7,1.9c0.7,0.2,1.5,0,2.2-0.4
			c0.7-0.7,0.7,0.3,0.6,0.8C966,25.1,966,25.3,966,25.6L966,25.6z M975.4,25.6c-1.7,0.9-4.1,1-5.6-0.4c-1.3-1.3-1.5-3.3-1-5
			c0.4-1.5,1.7-2.7,3.2-2.8c1.1-0.2,2.1,0,3.1,0.5c0.5,0.5,0.4,1.7,0.1,2c-1-0.7-2.4-1-3.5-0.2c-0.9,0.7-1,2-0.8,3
			c0.1,0.9,0.8,1.7,1.7,1.9c0.7,0.2,1.5,0,2.2-0.4c0.7-0.7,0.7,0.3,0.6,0.8C975.4,25.1,975.4,25.3,975.4,25.6L975.4,25.6z"/>
		<path d="M827.8,25.6c-1.7,0.9-4.1,1-5.6-0.4c-1.3-1.3-1.5-3.3-1-5c0.4-1.5,1.7-2.7,3.2-2.8c1.1-0.2,2.1,0,3.1,0.5
			c0.5,0.5,0.4,1.7,0.1,2c-1-0.7-2.4-1-3.5-0.2c-0.9,0.7-1,2-0.8,3c0.1,0.9,0.8,1.7,1.7,1.9c0.7,0.2,1.5,0,2.2-0.4
			c0.7-0.7,0.7,0.3,0.6,0.8C827.8,25.1,827.7,25.3,827.8,25.6L827.8,25.6z M837.1,25.6c-1.7,0.9-4.1,1-5.6-0.4c-1.3-1.3-1.5-3.3-1-5
			c0.4-1.5,1.7-2.7,3.2-2.8c1.1-0.2,2.1,0,3.1,0.5c0.5,0.5,0.4,1.7,0.1,2c-1-0.7-2.4-1-3.5-0.2c-0.9,0.7-1,2-0.8,3
			c0.1,0.9,0.8,1.7,1.7,1.9c0.7,0.2,1.5,0,2.2-0.4c0.7-0.7,0.7,0.3,0.6,0.8C837.1,25.1,837.1,25.3,837.1,25.6L837.1,25.6z"/>
		<path class="st1" d="M518.7,472.1V-4h-519v476.1h225.6c6.9-12.5,20.3-21,35.6-21s28.7,8.5,35.6,21H518.7L518.7,472.1z
			 M490.7,446.7h-16.6c-3.4,0-6.1-2.7-6.1-6.1v-28.9c0-3.4,2.7-6.1,6.1-6.1h16.6c3.4,0,6.1,2.7,6.1,6.1v28.9
			C496.8,444,494.1,446.7,490.7,446.7z M425.6,446.7h-16.6c-3.4,0-6.1-2.7-6.1-6.1v-28.9c0-3.4,2.7-6.1,6.1-6.1h16.6
			c3.4,0,6.1,2.7,6.1,6.1v28.9C431.7,444,429,446.7,425.6,446.7z M360.5,446.7h-16.6c-3.4,0-6.1-2.7-6.1-6.1v-28.9
			c0-3.4,2.7-6.1,6.1-6.1h16.6c3.4,0,6.1,2.7,6.1,6.1v28.9C366.6,444,363.8,446.7,360.5,446.7z M295.3,446.7h-16.6
			c-3.4,0-6.1-2.7-6.1-6.1v-28.9c0-3.4,2.7-6.1,6.1-6.1h16.6c3.4,0,6.1,2.7,6.1,6.1v28.9C301.4,444,298.7,446.7,295.3,446.7z
			 M230.2,446.7h-16.6c-3.4,0-6.1-2.7-6.1-6.1v-28.9c0-3.4,2.7-6.1,6.1-6.1h16.6c3.4,0,6.1,2.7,6.1,6.1v28.9
			C236.3,444,233.6,446.7,230.2,446.7z M165,446.7h-16.6c-3.4,0-6.1-2.7-6.1-6.1v-28.9c0-3.4,2.7-6.1,6.1-6.1H165
			c3.4,0,6.1,2.7,6.1,6.1v28.9C171.1,444,168.4,446.7,165,446.7z M99.9,446.7H83.3c-3.4,0-6.1-2.7-6.1-6.1v-28.9
			c0-3.4,2.7-6.1,6.1-6.1h16.6c3.4,0,6.1,2.7,6.1,6.1v28.9C106,444,103.3,446.7,99.9,446.7z M34.7,446.7H18.1
			c-3.4,0-6.1-2.7-6.1-6.1v-28.9c0-3.4,2.7-6.1,6.1-6.1h16.6c3.4,0,6.1,2.7,6.1,6.1v28.9C40.9,444,38.1,446.7,34.7,446.7z
			 M495.1,397.7H23.4c-6.8,0-12.3-5.5-12.3-12.3V85.3c0-6.8,5.5-12.3,12.3-12.3h471.7c6.8,0,12.3,5.5,12.3,12.3v300.2
			C507.4,392.3,501.9,397.7,495.1,397.7L495.1,397.7z M491.6,63.4H475c-3.4,0-6.1-2.7-6.1-6.1V28.4c0-3.4,2.7-6.1,6.1-6.1h16.6
			c3.4,0,6.1,2.7,6.1,6.1v28.9C497.7,60.7,495,63.4,491.6,63.4z M426.4,63.4h-16.6c-3.4,0-6.1-2.7-6.1-6.1V28.4
			c0-3.4,2.7-6.1,6.1-6.1h16.6c3.4,0,6.1,2.7,6.1,6.1v28.9C432.6,60.7,429.8,63.4,426.4,63.4z M361.3,63.4h-16.6
			c-3.4,0-6.1-2.7-6.1-6.1V28.4c0-3.4,2.7-6.1,6.1-6.1h16.6c3.4,0,6.1,2.7,6.1,6.1v28.9C367.5,60.7,364.7,63.4,361.3,63.4z
			 M296.2,63.4h-16.6c-3.4,0-6.1-2.7-6.1-6.1V28.4c0-3.4,2.7-6.1,6.1-6.1h16.6c3.4,0,6.1,2.7,6.1,6.1v28.9
			C302.3,60.7,299.6,63.4,296.2,63.4z M231,63.4h-16.6c-3.4,0-6.1-2.7-6.1-6.1V28.4c0-3.4,2.7-6.1,6.1-6.1H231
			c3.4,0,6.1,2.7,6.1,6.1v28.9C237.2,60.7,234.4,63.4,231,63.4z M165.9,63.4h-16.6c-3.4,0-6.1-2.7-6.1-6.1V28.4
			c0-3.4,2.7-6.1,6.1-6.1h16.6c3.4,0,6.1,2.7,6.1,6.1v28.9C172,60.7,169.3,63.4,165.9,63.4z M100.8,63.4H84.1
			c-3.4,0-6.1-2.7-6.1-6.1V28.4c0-3.4,2.7-6.1,6.1-6.1h16.6c3.4,0,6.1,2.7,6.1,6.1v28.9C106.9,60.7,104.2,63.4,100.8,63.4z
			 M35.6,63.4H19c-3.4,0-6.1-2.7-6.1-6.1V28.4c0-3.4,2.7-6.1,6.1-6.1h16.6c3.4,0,6.1,2.7,6.1,6.1v28.9C41.7,60.7,39,63.4,35.6,63.4z
			"/>
		<path class="st2" d="M350,472.1L350,472.1L350,472.1l0.1-12.1h5.6v12.1h6.2v-25.5c-0.4,0.1-0.9,0.2-1.4,0.2h-16.6
			c-2.6,0-4.8-1.6-5.7-3.9H332v29.3h6.2v-11.7h5.6v11.7L350,472.1L350,472.1z M221.8,472.1v-25.4h-8.3c-2.6,0-4.8-1.6-5.7-3.9h-4
			v29.3h6.2v-11.7h5.6v11.7L221.8,472.1L221.8,472.1z M518.5,472.1v-12h-6.2v12C512.3,472.1,518.5,472.1,518.5,472.1z M485.7,472.1
			v-25.3h-11.6c-2.8,0-5.1-1.8-5.9-4.3h-0.5v29.6h6.2V460h5.6v12.1L485.7,472.1L485.7,472.1z M51.1,472.1v-12h-6.2v12
			C44.9,472.1,51.1,472.1,51.1,472.1z M18.3,472.1v-25.3h-0.2c-2.8,0-5.1-1.8-5.9-4.3H0.3v29.6h6.2V460h5.6v12.1L18.3,472.1
			L18.3,472.1z M505.8,471.8V460h6.2v-17.6h-6.2v17.3h-6.2v-17.6h-2.9c-0.4,1.8-1.7,3.3-3.3,4v25.6L505.8,471.8L505.8,471.8z
			 M38.4,471.8V460h6.2v-17.6h-4c-0.4,1.3-1.2,2.3-2.2,3.1v14.2h-6.2v-13H26v25L38.4,471.8L38.4,471.8z M305.3,471.7v-12h-6.2v12
			C299.1,471.7,305.3,471.7,305.3,471.7z M131.2,469c3.3-0.3,5.1-3.9,4.9-7c0.3-3.4-1.1-8.2-5.4-7.7c-4.6,0.3-5.6,7.7-1.5,9.4
			c1.4,0.9,5.3-1.4,3.6,1.7c-1.1,2.8-6-0.7-5.3,3c0.9,0.4,1.9,0.6,2.9,0.6C130.7,469,130.9,469,131.2,469L131.2,469z M121.7,468.9
			c0.9,0,1.8-0.3,2.5-0.7c1-4.8-3.3,0-4.9-2.8c-1.3-2.1-1.2-4.9-0.3-7.1c0.9-3.4,5.3,0.9,5.3-2.4c-0.8-2.6-4.6-1.8-6.4-0.7
			c-2.7,2.2-2.9,6.2-2.1,9.3C116.3,467.4,119,469,121.7,468.9L121.7,468.9z M404.8,466.8c1,0,2-0.3,2.8-1c1.9-1.6,2.2-5.1-0.1-6.5
			c0.2-0.8,1.4-2.2,1.1-3.5c0.1-2-1.6-3.9-3.6-3.9c-1.7-0.4-3.5,0.5-4.3,2.1c-1,1.7-0.3,4.4,1.7,4.9c-1,0.2-1.8,1-2.2,1.9
			c-1.3,2.3,0.4,5.1,2.8,5.8C403.6,466.8,404.2,466.8,404.8,466.8L404.8,466.8z M439.3,466.7v-3.6h17.3v-5.7h-17.3v-3.6l-5.6,3.2
			l-5.6,3.2l5.6,3.2L439.3,466.7L439.3,466.7z M391.3,466.7c0.5,0,0.9-0.1,1.3-0.3c2.1,0.5,4.5-0.8,5.3-2.9c0.4-1.2,0.4-2.8-0.8-3.5
			c-1.2-0.4-1.2-1.8-0.2-2.5c1.4-1.1,0.8-3.3-0.5-4.2c-2.4-1.6-5.4-0.8-8.1-1c0,2.1,0,4.3,0,6.5c0.2,1.9-0.6,3.8-0.1,5.7
			C388.5,465.9,389.9,466.7,391.3,466.7L391.3,466.7z M404.7,464.5c-0.8,0-1.6-0.4-1.9-1.2c-0.9-1.3,0-3.4,1.7-3.2
			c1.6-0.2,2.5,1.7,1.9,3C406.2,464,405.5,464.5,404.7,464.5L404.7,464.5z M393.2,464.3c-2.1,0-3.1-2.6-2.3-4.3
			c1.1-0.4,2.4-0.3,3.3,0.4C395.9,461.5,395.1,464.2,393.2,464.3L393.2,464.3z M233.6,461.7c0.3-0.3,0.6-0.5,0.9-0.8v-16
			c-1.1,1.1-2.7,1.8-4.4,1.8h-1.8v15L233.6,461.7L233.6,461.7z M131.2,461.6c-2.2-0.2-2.5-3.7-1-4.8
			C133.4,455.2,134.4,461.4,131.2,461.6z M324.7,460.4v-17.6h-6.2v17.6H324.7z M311.8,460.4v-17.6h-6.2v17.6H311.8z M298.9,460.4
			v-14.9c-1,0.7-2.3,1.2-3.6,1.2h-2.6v13.7L298.9,460.4L298.9,460.4z M286,459.8v-13h-6.2v9C282,456.9,284.1,458.3,286,459.8
			L286,459.8z M392.6,457.9c-1.6,0-2.7-2-1.7-3.4c0.9-0.2,1.9-0.2,2.8,0.2c1.8,0.6,0.9,3.1-0.8,3.1
			C392.8,457.9,392.7,457.9,392.6,457.9L392.6,457.9z M404.5,457.8c-0.9,0.1-1.9-0.7-1.8-1.7c-0.2-1.4,1.4-2.1,2.5-1.7
			c1.4,0.4,1.1,2.2,0.1,2.9C405.1,457.6,404.8,457.8,404.5,457.8L404.5,457.8z M241.2,456.2c2-1.1,4-2.1,6.2-2.8v-10.2h-6.2V456.2
			L241.2,456.2z M273.2,453v-9.7H267v8.3C269.1,451.9,271.2,452.3,273.2,453z M254.1,451.7c2-0.3,4.1-0.5,6.2-0.6v-7.9h-6.2V451.7
			L254.1,451.7z"/>
		<path class="st2" d="M518.7,438v-19.3h-21.9V438H518.7z M468,438v-19.3h-36.3V438C431.7,438,468,438,468,438z M402.8,438v-19.3
			h-36.2V438H402.8z M337.7,438v-19.3h-36.3V438H337.7z M272.6,438v-19.3h-36.3V438H272.6z M207.4,438v-19.3h-36.3V438H207.4z
			 M142.3,438v-19.3H106V438H142.3z M77.1,438v-19.3H40.9V438H77.1z M12,438v-19.3H-0.3V438H12z"/>
		<path class="st2" d="M519.7,54.8V35h-22v19.8H519.7z M468.8,54.8V35h-36.3v19.8C432.6,54.8,468.8,54.8,468.8,54.8z M403.7,54.8V35
			h-36.2v19.8H403.7z M338.6,54.8V35h-36.3v19.8H338.6z M273.4,54.8V35h-36.3v19.8H273.4z M208.3,54.8V35H172v19.8H208.3z
			 M143.1,54.8V35h-36.2v19.8H143.1z M78,54.8V35H41.7v19.8H78z M12.9,54.8V35H-0.3v19.8H12.9z"/>
		<path class="st2" d="M514.4,18.3V-4h-12.4v22.3H514.4z M496.5,18.3V-4h-8v22.3H496.5z M376.4,18.3V-4h-12.4v22.3H376.4z
			 M358.5,18.3V-4h-8v22.3H358.5z M345.8,18.3V-4h-8v22.3H345.8z M179.6,18.3V-4h-8v22.3H179.6z M167.3,18.3V-4h-8v22.3H167.3z
			 M155.5,18.3V-4h-12.4v22.3H155.5z M125.3,18.3V-4h-8v22.3H125.3z M113,18.3V-4h-8v22.3H113z M100.8,18.3V-4h-8v22.3H100.8z
			 M32.5,18.3V-4h-8v22.3H32.5z M19.3,18.3V-4H7v22.3H19.3z"/>
		<path d="M266.3,10.4"/>
		<path d="M451.3,25.6c-1.7,0.9-4.1,1-5.6-0.4c-1.3-1.3-1.5-3.3-1-5c0.4-1.5,1.7-2.7,3.2-2.8c1.1-0.2,2.1,0,3.1,0.5
			c0.5,0.5,0.4,1.7,0.1,2c-1-0.7-2.4-1-3.5-0.2c-0.9,0.7-1,2-0.8,3c0.1,0.9,0.8,1.7,1.7,1.9c0.7,0.2,1.5,0,2.2-0.4
			c0.7-0.7,0.7,0.3,0.6,0.8C451.3,25.1,451.3,25.3,451.3,25.6L451.3,25.6z M460.7,25.6c-1.7,0.9-4.1,1-5.6-0.4c-1.3-1.3-1.5-3.3-1-5
			c0.4-1.5,1.7-2.7,3.2-2.8c1.1-0.2,2.1,0,3.1,0.5c0.5,0.5,0.4,1.7,0.1,2c-1-0.7-2.4-1-3.5-0.2c-0.9,0.7-1,2-0.8,3
			c0.1,0.9,0.8,1.7,1.7,1.9c0.7,0.2,1.5,0,2.2-0.4c0.7-0.7,0.7,0.3,0.6,0.8C460.7,25.1,460.7,25.3,460.7,25.6L460.7,25.6z"/>
		<path d="M313,25.6c-1.7,0.9-4.1,1-5.6-0.4c-1.3-1.3-1.5-3.3-1-5c0.4-1.5,1.7-2.7,3.2-2.8c1.1-0.2,2.1,0,3.1,0.5
			c0.5,0.5,0.4,1.7,0.1,2c-1-0.7-2.4-1-3.5-0.2c-0.9,0.7-1,2-0.8,3c0.1,0.9,0.8,1.7,1.7,1.9c0.7,0.2,1.5,0,2.2-0.4
			c0.7-0.7,0.7,0.3,0.6,0.8C313,25.1,313,25.3,313,25.6L313,25.6z M322.4,25.6c-1.7,0.9-4.1,1-5.6-0.4c-1.3-1.3-1.5-3.3-1-5
			c0.4-1.5,1.7-2.7,3.2-2.8c1.1-0.2,2.1,0,3.1,0.5c0.5,0.5,0.4,1.7,0.1,2c-1-0.7-2.4-1-3.5-0.2c-0.9,0.7-1,2-0.8,3
			c0.1,0.9,0.8,1.7,1.7,1.9c0.7,0.2,1.5,0,2.2-0.4c0.7-0.7,0.7,0.3,0.6,0.8C322.4,25.1,322.4,25.3,322.4,25.6L322.4,25.6z"/>
		<path class="st1" d="M1551.8,472.1V-4h-519v476.1h225.6c6.9-12.5,20.3-21,35.6-21s28.7,8.5,35.6,21H1551.8L1551.8,472.1z
			 M1523.8,446.7h-16.6c-3.4,0-6.1-2.7-6.1-6.1v-28.9c0-3.4,2.7-6.1,6.1-6.1h16.6c3.4,0,6.1,2.7,6.1,6.1v28.9
			C1530,444,1527.2,446.7,1523.8,446.7z M1458.7,446.7H1442c-3.4,0-6.1-2.7-6.1-6.1v-28.9c0-3.4,2.7-6.1,6.1-6.1h16.6
			c3.4,0,6.1,2.7,6.1,6.1v28.9C1464.8,444,1462.1,446.7,1458.7,446.7z M1393.6,446.7h-16.6c-3.4,0-6.1-2.7-6.1-6.1v-28.9
			c0-3.4,2.7-6.1,6.1-6.1h16.6c3.4,0,6.1,2.7,6.1,6.1v28.9C1399.7,444,1396.9,446.7,1393.6,446.7z M1328.4,446.7h-16.6
			c-3.4,0-6.1-2.7-6.1-6.1v-28.9c0-3.4,2.7-6.1,6.1-6.1h16.6c3.4,0,6.1,2.7,6.1,6.1v28.9C1334.5,444,1331.8,446.7,1328.4,446.7z
			 M1263.3,446.7h-16.6c-3.4,0-6.1-2.7-6.1-6.1v-28.9c0-3.4,2.7-6.1,6.1-6.1h16.6c3.4,0,6.1,2.7,6.1,6.1v28.9
			C1269.4,444,1266.7,446.7,1263.3,446.7z M1198.1,446.7h-16.6c-3.4,0-6.1-2.7-6.1-6.1v-28.9c0-3.4,2.7-6.1,6.1-6.1h16.6
			c3.4,0,6.1,2.7,6.1,6.1v28.9C1204.2,444,1201.5,446.7,1198.1,446.7z M1133,446.7h-16.6c-3.4,0-6.1-2.7-6.1-6.1v-28.9
			c0-3.4,2.7-6.1,6.1-6.1h16.6c3.4,0,6.1,2.7,6.1,6.1v28.9C1139.1,444,1136.4,446.7,1133,446.7z M1067.8,446.7h-16.6
			c-3.4,0-6.1-2.7-6.1-6.1v-28.9c0-3.4,2.7-6.1,6.1-6.1h16.6c3.4,0,6.1,2.7,6.1,6.1v28.9C1074,444,1071.2,446.7,1067.8,446.7z
			 M1528.2,397.7h-471.7c-6.8,0-12.3-5.5-12.3-12.3V85.3c0-6.8,5.5-12.3,12.3-12.3h471.7c6.8,0,12.3,5.5,12.3,12.3v300.2
			C1540.5,392.3,1535,397.7,1528.2,397.7L1528.2,397.7z M1524.7,63.4h-16.6c-3.4,0-6.1-2.7-6.1-6.1V28.4c0-3.4,2.7-6.1,6.1-6.1h16.6
			c3.4,0,6.1,2.7,6.1,6.1v28.9C1530.8,60.7,1528.1,63.4,1524.7,63.4z M1459.5,63.4h-16.6c-3.4,0-6.1-2.7-6.1-6.1V28.4
			c0-3.4,2.7-6.1,6.1-6.1h16.6c3.4,0,6.1,2.7,6.1,6.1v28.9C1465.7,60.7,1462.9,63.4,1459.5,63.4z M1394.4,63.4h-16.6
			c-3.4,0-6.1-2.7-6.1-6.1V28.4c0-3.4,2.7-6.1,6.1-6.1h16.6c3.4,0,6.1,2.7,6.1,6.1v28.9C1400.6,60.7,1397.8,63.4,1394.4,63.4z
			 M1329.3,63.4h-16.6c-3.4,0-6.1-2.7-6.1-6.1V28.4c0-3.4,2.7-6.1,6.1-6.1h16.6c3.4,0,6.1,2.7,6.1,6.1v28.9
			C1335.4,60.7,1332.7,63.4,1329.3,63.4z M1264.1,63.4h-16.6c-3.4,0-6.1-2.7-6.1-6.1V28.4c0-3.4,2.7-6.1,6.1-6.1h16.6
			c3.4,0,6.1,2.7,6.1,6.1v28.9C1270.3,60.7,1267.5,63.4,1264.1,63.4z M1199,63.4h-16.6c-3.4,0-6.1-2.7-6.1-6.1V28.4
			c0-3.4,2.7-6.1,6.1-6.1h16.6c3.4,0,6.1,2.7,6.1,6.1v28.9C1205.1,60.7,1202.4,63.4,1199,63.4z M1133.9,63.4h-16.6
			c-3.4,0-6.1-2.7-6.1-6.1V28.4c0-3.4,2.7-6.1,6.1-6.1h16.6c3.4,0,6.1,2.7,6.1,6.1v28.9C1140,60.7,1137.3,63.4,1133.9,63.4z
			 M1068.7,63.4h-16.6c-3.4,0-6.1-2.7-6.1-6.1V28.4c0-3.4,2.7-6.1,6.1-6.1h16.6c3.4,0,6.1,2.7,6.1,6.1v28.9
			C1074.8,60.7,1072.1,63.4,1068.7,63.4z"/>
		<path class="st2" d="M1383.1,472.1L1383.1,472.1L1383.1,472.1l0.1-12.1h5.6v12.1h6.2v-25.5c-0.4,0.1-0.9,0.2-1.4,0.2h-16.6
			c-2.6,0-4.8-1.6-5.7-3.9h-6.1v29.3h6.2v-11.7h5.6v11.7L1383.1,472.1L1383.1,472.1z M1254.9,472.1v-25.4h-8.3
			c-2.6,0-4.8-1.6-5.7-3.9h-4v29.3h6.2v-11.7h5.6v11.7L1254.9,472.1L1254.9,472.1z M1551.6,472.1v-12h-6.2v12
			C1545.4,472.1,1551.6,472.1,1551.6,472.1z M1518.8,472.1v-25.3h-11.6c-2.8,0-5.1-1.8-5.9-4.3h-0.5v29.6h6.2V460h5.6v12.1
			L1518.8,472.1L1518.8,472.1z M1084.2,472.1v-12h-6.2v12C1078,472.1,1084.2,472.1,1084.2,472.1z M1051.4,472.1v-25.3h-0.2
			c-2.8,0-5.1-1.8-5.9-4.3h-11.9v29.6h6.2V460h5.6v12.1L1051.4,472.1L1051.4,472.1z M1538.9,471.8V460h6.2v-17.6h-6.2v17.3h-6.2
			v-17.6h-2.9c-0.4,1.8-1.7,3.3-3.3,4v25.6L1538.9,471.8L1538.9,471.8z M1071.5,471.8V460h6.2v-17.6h-4c-0.4,1.3-1.2,2.3-2.2,3.1
			v14.2h-6.2v-13h-6.2v25L1071.5,471.8L1071.5,471.8z M1338.4,471.7v-12h-6.2v12C1332.2,471.7,1338.4,471.7,1338.4,471.7z
			 M1164.3,469c3.3-0.3,5.1-3.9,4.9-7c0.3-3.4-1.1-8.2-5.4-7.7c-4.6,0.3-5.6,7.7-1.5,9.4c1.4,0.9,5.3-1.4,3.6,1.7
			c-1.1,2.8-6-0.7-5.3,3c0.9,0.4,1.9,0.6,2.9,0.6C1163.8,469,1164,469,1164.3,469L1164.3,469z M1154.8,468.9c0.9,0,1.8-0.3,2.5-0.7
			c1-4.8-3.3,0-4.9-2.8c-1.3-2.1-1.2-4.9-0.3-7.1c0.9-3.4,5.3,0.9,5.3-2.4c-0.8-2.6-4.6-1.8-6.4-0.7c-2.7,2.2-2.9,6.2-2.1,9.3
			C1149.4,467.4,1152.1,469,1154.8,468.9L1154.8,468.9z M1437.9,466.8c1,0,2-0.3,2.8-1c1.9-1.6,2.2-5.1-0.1-6.5
			c0.2-0.8,1.4-2.2,1.1-3.5c0.1-2-1.6-3.9-3.6-3.9c-1.7-0.4-3.5,0.5-4.3,2.1c-1,1.7-0.3,4.4,1.7,4.9c-1,0.2-1.8,1-2.2,1.9
			c-1.3,2.3,0.4,5.1,2.8,5.8C1436.7,466.8,1437.3,466.8,1437.9,466.8L1437.9,466.8z M1472.4,466.7v-3.6h17.3v-5.7h-17.3v-3.6
			l-5.6,3.2l-5.6,3.2l5.6,3.2L1472.4,466.7L1472.4,466.7z M1424.4,466.7c0.5,0,0.9-0.1,1.3-0.3c2.1,0.5,4.5-0.8,5.3-2.9
			c0.4-1.2,0.4-2.8-0.8-3.5c-1.2-0.4-1.2-1.8-0.2-2.5c1.4-1.1,0.8-3.3-0.5-4.2c-2.4-1.6-5.4-0.8-8.1-1c0,2.1,0,4.3,0,6.5
			c0.2,1.9-0.6,3.8-0.1,5.7C1421.6,465.9,1423,466.7,1424.4,466.7L1424.4,466.7z M1437.8,464.5c-0.8,0-1.6-0.4-1.9-1.2
			c-0.9-1.3,0-3.4,1.7-3.2c1.6-0.2,2.5,1.7,1.9,3C1439.3,464,1438.6,464.5,1437.8,464.5L1437.8,464.5z M1426.3,464.3
			c-2.1,0-3.1-2.6-2.3-4.3c1.1-0.4,2.4-0.3,3.3,0.4C1429,461.5,1428.2,464.2,1426.3,464.3L1426.3,464.3z M1266.7,461.7
			c0.3-0.3,0.6-0.5,0.9-0.8v-16c-1.1,1.1-2.7,1.8-4.4,1.8h-1.8v15L1266.7,461.7L1266.7,461.7z M1164.3,461.6c-2.2-0.2-2.5-3.7-1-4.8
			C1166.5,455.2,1167.5,461.4,1164.3,461.6z M1357.8,460.4v-17.6h-6.2v17.6H1357.8z M1344.9,460.4v-17.6h-6.2v17.6H1344.9z
			 M1332,460.4v-14.9c-1,0.7-2.3,1.2-3.6,1.2h-2.6v13.7L1332,460.4L1332,460.4z M1319.1,459.8v-13h-6.2v9
			C1315.1,456.9,1317.2,458.3,1319.1,459.8L1319.1,459.8z M1425.7,457.9c-1.6,0-2.7-2-1.7-3.4c0.9-0.2,1.9-0.2,2.8,0.2
			c1.8,0.6,0.9,3.1-0.8,3.1C1425.9,457.9,1425.8,457.9,1425.7,457.9L1425.7,457.9z M1437.6,457.8c-0.9,0.1-1.9-0.7-1.8-1.7
			c-0.2-1.4,1.4-2.1,2.5-1.7c1.4,0.4,1.1,2.2,0.1,2.9C1438.2,457.6,1438,457.8,1437.6,457.8L1437.6,457.8z M1274.3,456.2
			c2-1.1,4-2.1,6.2-2.8v-10.2h-6.2V456.2L1274.3,456.2z M1306.3,453v-9.7h-6.2v8.3C1302.2,451.9,1304.3,452.3,1306.3,453z
			 M1287.2,451.7c2-0.3,4.1-0.5,6.2-0.6v-7.9h-6.2V451.7L1287.2,451.7z"/>
		<path class="st2" d="M1551.8,438v-19.3H1530V438H1551.8z M1501.1,438v-19.3h-36.3V438C1464.8,438,1501.1,438,1501.1,438z
			 M1435.9,438v-19.3h-36.2V438H1435.9z M1370.8,438v-19.3h-36.3V438H1370.8z M1305.7,438v-19.3h-36.3V438H1305.7z M1240.5,438
			v-19.3h-36.3V438H1240.5z M1175.4,438v-19.3h-36.2V438H1175.4z M1110.2,438v-19.3H1074V438H1110.2z M1045.1,438v-19.3h-12.3V438
			H1045.1z"/>
		<path class="st2" d="M1551.8,54.8V35h-21v19.8H1551.8z M1501.9,54.8V35h-36.3v19.8C1465.7,54.8,1501.9,54.8,1501.9,54.8z
			 M1436.8,54.8V35h-36.2v19.8H1436.8z M1371.7,54.8V35h-36.3v19.8H1371.7z M1306.5,54.8V35h-36.3v19.8H1306.5z M1241.4,54.8V35
			h-36.3v19.8H1241.4z M1176.2,54.8V35H1140v19.8H1176.2z M1111.1,54.8V35h-36.3v19.8H1111.1z M1046,54.8V35h-15.3v19.8H1046z"/>
		<path class="st2" d="M1547.5,18.3V-4h-12.4v22.3H1547.5z M1529.6,18.3V-4h-8v22.3H1529.6z M1409.5,18.3V-4h-12.4v22.3H1409.5z
			 M1391.6,18.3V-4h-8v22.3H1391.6z M1378.9,18.3V-4h-8v22.3H1378.9z M1212.7,18.3V-4h-8v22.3H1212.7z M1200.4,18.3V-4h-8v22.3
			H1200.4z M1188.6,18.3V-4h-12.4v22.3H1188.6z M1158.4,18.3V-4h-8v22.3H1158.4z M1146.1,18.3V-4h-8v22.3H1146.1z M1133.9,18.3V-4
			h-8v22.3H1133.9z M1065.6,18.3V-4h-8v22.3H1065.6z M1052.4,18.3V-4h-12.4v22.3H1052.4z"/>
		<path d="M1484.4,25.6c-1.7,0.9-4.1,1-5.6-0.4c-1.3-1.3-1.5-3.3-1-5c0.4-1.5,1.7-2.7,3.2-2.8c1.1-0.2,2.1,0,3.1,0.5
			c0.5,0.5,0.4,1.7,0.1,2c-1-0.7-2.4-1-3.5-0.2c-0.9,0.7-1,2-0.8,3c0.1,0.9,0.8,1.7,1.7,1.9c0.7,0.2,1.5,0,2.2-0.4
			c0.7-0.7,0.7,0.3,0.6,0.8C1484.4,25.1,1484.4,25.3,1484.4,25.6L1484.4,25.6z M1493.8,25.6c-1.7,0.9-4.1,1-5.6-0.4
			c-1.3-1.3-1.5-3.3-1-5c0.4-1.5,1.7-2.7,3.2-2.8c1.1-0.2,2.1,0,3.1,0.5c0.5,0.5,0.4,1.7,0.1,2c-1-0.7-2.4-1-3.5-0.2
			c-0.9,0.7-1,2-0.8,3c0.1,0.9,0.8,1.7,1.7,1.9c0.7,0.2,1.5,0,2.2-0.4c0.7-0.7,0.7,0.3,0.6,0.8C1493.8,25.1,1493.8,25.3,1493.8,25.6
			L1493.8,25.6z"/>
		<path d="M1346.1,25.6c-1.7,0.9-4.1,1-5.6-0.4c-1.3-1.3-1.5-3.3-1-5c0.4-1.5,1.7-2.7,3.2-2.8c1.1-0.2,2.1,0,3.1,0.5
			c0.5,0.5,0.4,1.7,0.1,2c-1-0.7-2.4-1-3.5-0.2c-0.9,0.7-1,2-0.8,3c0.1,0.9,0.8,1.7,1.7,1.9c0.7,0.2,1.5,0,2.2-0.4
			c0.7-0.7,0.7,0.3,0.6,0.8C1346.1,25.1,1346.1,25.3,1346.1,25.6L1346.1,25.6z M1355.5,25.6c-1.7,0.9-4.1,1-5.6-0.4
			c-1.3-1.3-1.5-3.3-1-5c0.4-1.5,1.7-2.7,3.2-2.8c1.1-0.2,2.1,0,3.1,0.5c0.5,0.5,0.4,1.7,0.1,2c-1-0.7-2.4-1-3.5-0.2
			c-0.9,0.7-1,2-0.8,3c0.1,0.9,0.8,1.7,1.7,1.9c0.7,0.2,1.5,0,2.2-0.4c0.7-0.7,0.7,0.3,0.6,0.8C1355.5,25.1,1355.5,25.3,1355.5,25.6
			L1355.5,25.6z"/>
		<rect x="1227.3" y="9" class="st2" width="6.2" height="12"/>
		<path class="st2" d="M1264.1-4v26.2h0.2c2.8,0,5.1,1.9,5.9,4.5h11.9V-4h-6.2V8.5h-5.6V-4L1264.1-4L1264.1-4z"/>
		<rect x="1284.9" y="-4" class="st2" width="6.2" height="12.4"/>
		<path class="st2" d="M1317.7-4v26.2h11.6c2.8,0,5.1,1.9,5.9,4.5h0.5V-4h-6.2V8.5h-5.6V-4L1317.7-4L1317.7-4z"/>
		<path class="st2" d="M1297.6-4V8.3h-6.2v18.4h6.2V8.6h6.2V27h2.9c0.4-1.9,1.7-3.4,3.3-4.2V-4L1297.6-4L1297.6-4z"/>
		<path class="st2" d="M1244-4V8.2h-6.2v18.2h4c0.4-1.3,1.2-2.4,2.2-3.2V8.5h6.2v13.5h6.2V-4L1244-4L1244-4z"/>
		<g>
			<path d="M408.6,14.4c0-1.5,0.9-2.6,2.3-3.2v-0.1c-1.2-0.6-1.9-1.7-1.9-2.8c0-2.2,2-3.6,4.5-3.6c3,0,4.3,1.7,4.3,3.3
				c0,1.1-0.6,2.2-1.9,2.8v0.1c1.2,0.5,2.4,1.5,2.4,3.2c0,2.3-2,3.9-4.9,3.9C410.1,18,408.6,16.1,408.6,14.4z M415.3,14.3
				c0-1.1-0.8-1.8-2-2.1c-1,0.3-1.6,1-1.6,1.9c0,0.9,0.7,1.8,1.8,1.8C414.6,15.9,415.3,15.2,415.3,14.3z M411.9,8.2
				c0,0.9,0.8,1.4,1.8,1.7c0.7-0.2,1.3-0.8,1.3-1.6c0-0.8-0.5-1.6-1.6-1.6C412.4,6.7,411.9,7.4,411.9,8.2z"/>
			<path d="M419.8,4.6c0.8-0.2,2.4-0.3,3.9-0.3c1.8,0,3,0.2,3.9,0.8c0.9,0.5,1.6,1.4,1.6,2.6c0,1.2-0.7,2.3-2.2,2.8v0
				c1.5,0.4,2.6,1.6,2.6,3.3c0,1.2-0.6,2.2-1.4,2.8c-1,0.8-2.6,1.2-5.2,1.2c-1.5,0-2.6-0.1-3.3-0.2V4.6z M422.8,9.7h1
				c1.6,0,2.4-0.7,2.4-1.6c0-1-0.8-1.5-2.1-1.5c-0.7,0-1,0-1.3,0.1V9.7z M422.8,15.6c0.3,0,0.7,0,1.2,0c1.4,0,2.6-0.5,2.6-1.9
				c0-1.3-1.2-1.9-2.7-1.9h-1V15.6z"/>
		</g>
		<g>
			<path d="M922.2,14.5c0.4,0,0.7,0,1.3,0c0.9-0.1,1.8-0.3,2.5-0.8c0.8-0.6,1.4-1.4,1.6-2.4l-0.1,0c-0.6,0.6-1.4,0.9-2.6,0.9
				c-2.2,0-4-1.5-4-4c0-2.5,2-4.6,4.8-4.6c3.3,0,4.9,2.5,4.9,5.5c0,2.7-0.9,4.6-2.3,5.9c-1.2,1.1-2.9,1.7-4.9,1.8c-0.5,0-1,0-1.4,0
				V14.5z M924,8c0,1.1,0.6,2.1,1.8,2.1c0.8,0,1.4-0.4,1.7-0.9c0.1-0.2,0.2-0.4,0.2-0.8c0-1.4-0.5-2.7-1.9-2.7
				C924.7,5.8,924,6.7,924,8z"/>
			<path d="M932.2,3.5c0.8-0.2,2.4-0.3,3.9-0.3c1.8,0,3,0.2,3.9,0.8c0.9,0.5,1.6,1.4,1.6,2.6c0,1.2-0.7,2.3-2.2,2.8v0
				c1.5,0.4,2.6,1.6,2.6,3.3c0,1.2-0.6,2.2-1.4,2.8c-1,0.8-2.6,1.2-5.2,1.2c-1.5,0-2.6-0.1-3.3-0.2V3.5z M935.2,8.6h1
				c1.6,0,2.4-0.7,2.4-1.6c0-1-0.8-1.5-2.1-1.5c-0.7,0-1,0-1.3,0.1V8.6z M935.2,14.5c0.3,0,0.7,0,1.2,0c1.4,0,2.6-0.5,2.6-1.9
				c0-1.3-1.2-1.9-2.7-1.9h-1V14.5z"/>
		</g>
		<g>
			<path d="M1439,7.5L1439,7.5l-2.5,1.2l-0.5-2.3l3.4-1.6h2.5v12.9h-2.9V7.5z"/>
			<path d="M1454.3,11.2c0,4-1.6,6.7-4.9,6.7c-3.3,0-4.8-3-4.8-6.6c0-3.7,1.6-6.7,4.9-6.7C1453,4.6,1454.3,7.6,1454.3,11.2z
				 M1447.7,11.2c0,2.9,0.7,4.4,1.9,4.4c1.2,0,1.8-1.5,1.8-4.4c0-2.8-0.6-4.4-1.8-4.4C1448.4,6.8,1447.6,8.3,1447.7,11.2z"/>
			<path d="M1455.8,4.5c0.8-0.2,2.4-0.3,3.9-0.3c1.8,0,3,0.2,3.9,0.8c0.9,0.5,1.6,1.4,1.6,2.6c0,1.2-0.7,2.3-2.2,2.8v0
				c1.5,0.4,2.6,1.6,2.6,3.3c0,1.2-0.6,2.2-1.4,2.8c-1,0.8-2.6,1.2-5.2,1.2c-1.5,0-2.6-0.1-3.3-0.2V4.5z M1458.8,9.6h1
				c1.6,0,2.4-0.7,2.4-1.6c0-1-0.8-1.5-2.1-1.5c-0.7,0-1,0-1.3,0.1V9.6z M1458.8,15.5c0.3,0,0.7,0,1.2,0c1.4,0,2.6-0.5,2.6-1.9
				c0-1.3-1.2-1.9-2.7-1.9h-1V15.5z"/>
		</g>
		<g>
			<path d="M749.9,12.4c-0.1-1.6-0.1-3.5-0.1-5.5h-0.1c-0.4,1.7-1,3.6-1.5,5.2l-1.6,5.2h-2.4l-1.4-5.2c-0.4-1.6-0.9-3.5-1.2-5.2h0
				c-0.1,1.8-0.1,3.9-0.2,5.5l-0.2,5.1h-2.8l0.9-13.3h4l1.3,4.4c0.4,1.5,0.8,3.2,1.1,4.8h0.1c0.4-1.5,0.8-3.3,1.3-4.8l1.4-4.4h3.9
				l0.7,13.3h-2.9L749.9,12.4z"/>
			<path d="M762.8,11.8h-4.9V15h5.5v2.5h-8.5V4.1h8.2v2.5h-5.2v2.8h4.9V11.8z"/>
			<path d="M768.2,7.3L768.2,7.3l-2.5,1.2l-0.5-2.3l3.4-1.6h2.5v12.9h-2.9V7.3z"/>
			<path d="M783.6,11c0,4-1.6,6.7-4.9,6.7c-3.3,0-4.8-3-4.8-6.6c0-3.7,1.6-6.7,4.9-6.7C782.2,4.4,783.6,7.5,783.6,11z M776.9,11
				c0,2.9,0.7,4.4,1.9,4.4c1.2,0,1.8-1.5,1.8-4.4c0-2.8-0.6-4.4-1.8-4.4C777.6,6.7,776.9,8.1,776.9,11z"/>
			<path d="M794,11c0,4-1.6,6.7-4.9,6.7c-3.3,0-4.8-3-4.8-6.6c0-3.7,1.6-6.7,4.9-6.7C792.7,4.4,794,7.5,794,11z M787.4,11
				c0,2.9,0.7,4.4,1.9,4.4c1.2,0,1.8-1.5,1.8-4.4c0-2.8-0.6-4.4-1.8-4.4C788.1,6.7,787.4,8.1,787.4,11z"/>
		</g>
	</g>
</g>
</svg>
